<svg width="24" height="24" viewBox="0 0 24 24" fill="none" xmlns="http://www.w3.org/2000/svg">
<g id="help">
<g id="help_2">
<path id="Exclude" fill-rule="evenodd" clip-rule="evenodd" d="M1.25 12C1.25 6.06294 6.06294 1.25 12 1.25C17.9371 1.25 22.75 6.06294 22.75 12C22.75 17.9371 17.9371 22.75 12 22.75C6.06294 22.75 1.25 17.9371 1.25 12ZM11.9079 7.75C11.4187 7.75 10.9689 7.95485 10.6326 8.30201C10.4486 8.49195 10.3 8.72353 10.2012 8.98401C10.0543 9.37131 9.62131 9.5662 9.23401 9.41932C8.84671 9.27244 8.65181 8.83941 8.7987 8.45211C8.96962 8.0014 9.22858 7.59552 9.55519 7.25836C10.1539 6.64029 10.9846 6.25 11.9079 6.25C13.79 6.25 15.25 7.84564 15.25 9.73065C15.25 11.3594 14.1666 12.7632 12.6579 13.1232V14C12.6579 14.4142 12.3221 14.75 11.9079 14.75C11.4937 14.75 11.1579 14.4142 11.1579 14V12.9613C11.1579 12.2422 11.7273 11.7842 12.2544 11.6764C13.0802 11.5076 13.75 10.7233 13.75 9.73065C13.75 8.59947 12.8889 7.75 11.9079 7.75ZM13 17.25C13 17.8023 12.5522 18.25 12 18.25C11.4477 18.25 11 17.8023 11 17.25C11 16.6977 11.4477 16.25 12 16.25C12.5522 16.25 13 16.6977 13 17.25Z" fill="#7A7A7A"/>
</g>
</g>
</svg>
