<svg width="29" height="29" viewBox="0 0 29 29" fill="none" xmlns="http://www.w3.org/2000/svg">
<path d="M21.0292 2.94597H8.07106C5.247 2.94597 2.94592 5.24705 2.94592 8.0711V15.6252V15.8576C2.94592 18.6933 5.247 20.9827 8.07106 20.9827H12.5338C13.1729 20.9827 13.6959 21.5057 13.6959 22.1449V23.2722C13.6959 23.9114 13.1729 24.4343 12.5338 24.4343H9.72133C9.24484 24.4343 8.84971 24.8295 8.84971 25.306C8.84971 25.7825 9.23322 26.1892 9.72133 26.1892H19.4254C19.9019 26.1892 20.297 25.7941 20.297 25.3176C20.297 24.8411 19.9019 24.446 19.4254 24.446H16.613C15.9738 24.446 15.4508 23.923 15.4508 23.2838V22.1565C15.4508 21.5173 15.9738 20.9943 16.613 20.9943H21.0408C23.8765 20.9943 26.1659 18.6933 26.1659 15.8692V15.6368V8.08273C26.1543 5.24705 23.8532 2.94597 21.0292 2.94597Z" fill="white"/>
</svg>
