<svg width="18" height="22" viewBox="0 0 18 22" fill="none" xmlns="http://www.w3.org/2000/svg">
<g clip-path="url(#clip0_4_2756)">
<path d="M16.9054 16.6273C16.5985 17.3374 16.2352 17.9911 15.8143 18.5921C15.2406 19.4114 14.7708 19.9785 14.4088 20.2934C13.8476 20.8103 13.2463 21.0751 12.6024 21.0901C12.1402 21.0901 11.5828 20.9584 10.9339 20.6912C10.2828 20.4252 9.68456 20.2934 9.13752 20.2934C8.56379 20.2934 7.94847 20.4252 7.29031 20.6912C6.63115 20.9584 6.10013 21.0977 5.69414 21.1115C5.07669 21.1378 4.46125 20.8656 3.84693 20.2934C3.45484 19.9509 2.96442 19.3637 2.37691 18.5319C1.74656 17.6436 1.22832 16.6135 0.822329 15.4391C0.387523 14.1706 0.169556 12.9423 0.169556 11.7531C0.169556 10.3909 0.463435 9.21607 1.05207 8.23153C1.51469 7.44071 2.13013 6.81689 2.90041 6.35893C3.67068 5.90098 4.50296 5.66761 5.39926 5.65268C5.88968 5.65268 6.53281 5.80462 7.33202 6.10323C8.12898 6.40285 8.6407 6.55479 8.86506 6.55479C9.03279 6.55479 9.60126 6.37713 10.5649 6.02293C11.4763 5.69446 12.2454 5.55845 12.8755 5.61203C14.5829 5.75004 15.8657 6.42418 16.7188 7.6387C15.1917 8.5654 14.4364 9.86335 14.4514 11.5284C14.4652 12.8254 14.9349 13.9046 15.8582 14.7616C16.2766 15.1593 16.7438 15.4667 17.2637 15.685C17.1509 16.0125 17.0319 16.3262 16.9054 16.6273ZM12.9895 1.19358C12.9895 2.21013 12.6187 3.15927 11.8796 4.03779C10.9877 5.08218 9.90892 5.68568 8.73904 5.59045C8.72413 5.46849 8.71549 5.34014 8.71549 5.20526C8.71549 4.22938 9.13965 3.18499 9.89288 2.33107C10.2689 1.89871 10.7472 1.53921 11.3272 1.25243C11.9059 0.969925 12.4534 0.813695 12.9682 0.786942C12.9833 0.922838 12.9895 1.05874 12.9895 1.19357V1.19358Z" fill="white"/>
</g>
<defs>
<clipPath id="clip0_4_2756">
<rect width="17.0941" height="20.3263" fill="white" transform="translate(0.169556 0.786407)"/>
</clipPath>
</defs>
</svg>
