<svg width="21" height="21" viewBox="0 0 21 21" fill="none" xmlns="http://www.w3.org/2000/svg">
<g clip-path="url(#clip0_4_2749)">
<path d="M4.77434 12.4058L4.06764 15.044L1.48468 15.0986C0.712752 13.6669 0.274902 12.0288 0.274902 10.288C0.274902 8.60466 0.684281 7.01727 1.40993 5.61954H1.41049L3.71005 6.04113L4.7174 8.32689C4.50656 8.94156 4.39165 9.60138 4.39165 10.288C4.39173 11.0331 4.52671 11.7471 4.77434 12.4058Z" fill="white"/>
<path d="M20.3998 8.39133C20.5164 9.0054 20.5772 9.63957 20.5772 10.2877C20.5772 11.0145 20.5008 11.7234 20.3552 12.4072C19.8611 14.7342 18.5698 16.7661 16.7811 18.204L16.7806 18.2034L13.8841 18.0556L13.4742 15.4966C14.6611 14.8005 15.5887 13.7112 16.0773 12.4072H10.6492V8.39133H16.1565H20.3998Z" fill="white"/>
<path d="M16.7803 18.2037L16.7809 18.2042C15.0413 19.6025 12.8314 20.4392 10.4258 20.4392C6.55997 20.4392 3.19894 18.2784 1.48438 15.0987L4.77404 12.4058C5.6313 14.6937 7.83835 16.3224 10.4258 16.3224C11.5379 16.3224 12.5799 16.0217 13.4739 15.4969L16.7803 18.2037Z" fill="white"/>
<path d="M16.9054 2.4737L13.6169 5.16599C12.6916 4.58761 11.5978 4.25349 10.426 4.25349C7.77994 4.25349 5.53161 5.95687 4.7173 8.32682L1.41035 5.61946H1.40979C3.09925 2.36216 6.50268 0.136703 10.426 0.136703C12.889 0.136703 15.1474 1.01407 16.9054 2.4737Z" fill="white"/>
</g>
<defs>
<clipPath id="clip0_4_2749">
<rect width="20.3024" height="20.3024" fill="white" transform="translate(0.274902 0.136688)"/>
</clipPath>
</defs>
</svg>
